<?xml version="1.0" encoding="UTF-8"?>
<svg id="Layer_1" data-name="Layer 1" xmlns="http://www.w3.org/2000/svg" viewBox="0 0 91.72 12.69">
  <path d="m13.94,4.41c.24.28.31.19.33.54.03.5,0,.98-.28,1.42-.13.2-.07.26.15.33.4.13.79.3,1.15.51.21.13.37.37.5.59.04.06-.09.24-.17.34-.11.14-.25.11-.35-.02-.3-.39-.73-.58-1.18-.65-.58-.08-1.17-.13-1.75-.07-.25.02-.5.6-.49.98,0,.19-.16.17-.3.08-.34-.23-.23-1.75-.2-2.02.07-.54.1-1.09.18-1.63.03-.19.26-.14.41-.33.25-.29,1.61-.5,1.98-.05Zm-1.47,2.1c.42.13.73-.14,1-.48.25-.3.32-.76-.03-.97-.42-.25-.86.18-1.29.26-.12.26-.34.49-.27.81,0,.03,0,.06,0,.08-.02.19,0,.34.26.3.08-.01.17,0,.32,0Z" fill="#4f5353" stroke-width="0"/>
  <path d="m21.3,8.14s0,.06,0,.09c-.03.19,0,.51-.09.55-.26.11-.35-.22-.53-.34-.02-.02-.06-.04-.06-.06-.05-.31-.18-.7-.44-.75-.5-.1-1.03-.05-1.55-.04-.04,0-.09.11-.12.18-.06.15-.11.31-.18.45-.07.14-.15.3-.27.4-.07.06-.32-.42-.25-.58.2-.43.29-.87.36-1.34.03-.23.23-.42.33-.64.24-.51.46-1.03.7-1.54.06-.12.1-.26.19-.36.33-.39.44-.37.69.04.3.49.4,1.06.53,1.61.05.22.32.8.41,1.05.15.41.25.83.37,1.25-.03,0-.05.01-.08.02Zm-1.55-1.44c.09,0,.17,0,.26,0,.25-.01.29-.08.18-.31-.03-.07-.07-.14-.12-.21-.17-.23-.16-.67-.51-.68-.46-.01-.27.54-.51.76-.1.09.11.42.27.44.14.02.29,0,.43,0Z" fill="#4f5353" stroke-width="0"/>
  <path d="m1.45,7.49c-.12,0-.23,0-.35,0-.14,0-.33-.02-.41.05-.08.08-.15.81-.18.95-.02.1-.08.2-.14.29-.08.13-.16.13-.25,0-.03-.05-.12-.08-.12-.12,0-.55-.11-1.64.32-2.9.18-.54.67-1.36,1.06-1.75.28-.28.6-.3.9-.06.58.48.68,1.18.79,1.85.06.35.2,2.46.19,2.75,0,.13.07.32-.16.31-.13,0-.31-.03-.38-.12-.15-.18-.34-.34-.18-.67.16-.33-.09-.58-.48-.6-.2,0-.41,0-.61,0Zm.23-.88q.7,0,.7-.74c0-.14.05-.32-.01-.43-.12-.21-.26-.45-.46-.57-.22-.14-.45.04-.57.25-.13.2-.21.43-.31.65-.33.71-.25.83.56.84.03,0,.06,0,.09,0Z" fill="#4f5353" stroke-width="0"/>
  <path d="m8.44,5.86c-.08-1.4.19-1.6.39-1.53.13.05.3.21.32.34.04.4.12.85-.01,1.21-.15.4-.16.77-.14,1.16.02.49-.16.87-.51,1.19-.13.12-.86.86-2.32.24-.34-.44-.48-.99-.59-1.5-.11-.54-.33-1.09-.2-1.67.05-.21.1-.42.2-.61.03-.06.21-.09.31-.07.08.02.15.12.19.2.03.07,0,.18,0,.26.05,1.82.16,2.21.58,2.69.09.1,1.84.47,1.79-1.91Z" fill="#4f5353" stroke-width="0"/>
</svg>