<?xml version="1.0" encoding="UTF-8"?>
<svg id="Layer_1" data-name="Layer 1" xmlns="http://www.w3.org/2000/svg" viewBox="0 0 91.72 12.69">
  <path d="m0,6.38C0,5.87.02,5.36,0,4.85c-.01-.3.11-.56.19-.84.12-.4.54,0,.65-.31.51-.05.98-.35,1.54-.1.69.31.89.76.46,1.37-.15.21-.28.43-.43.64-.24.34-.23.31.18.48.41.17.82.36,1.17.62.17.13.28.44.29.67.01.23-.1.64-.21.67-.51.09-.63.85-1.25.69-.22.31-.55.19-.83.2-.24.01-.48.02-.71,0-.22-.02-.33.46-.59.13C.22,8.79,0,8.51,0,8.12c0-.58,0-1.16,0-1.74Zm.82.87c0,.75.35,1.17.95,1.07.59-.1,1.1-.37,1.46-.87.05-.06.06-.22.02-.26-.23-.22-.39-.54-.8-.5-.44.04-.88.02-1.32,0-.2,0-.33.03-.31.27,0,.1,0,.2,0,.3Zm-.04-1.86c.88.23,1.09-.34,1.46-.64.03-.03.03-.13,0-.19-.04-.11-.65-.34-.75-.28-.27.18-.54.35-.77.58-.1.09-.14.32-.1.44.03.1.24.14.15.09Z" fill="#4f5353" stroke-width="0"/>
  <path d="m13.3,7.25c.07-.47-.17-1.06.2-1.57-.33-.32-.03-.63-.01-.95.02-.37.15-.53.5-.72.41-.22.83-.27,1.1-.05.22.18.62.15.68.6.06.5.41.98-.02,1.47-.06.07-.07.18-.1.26-.18.43-.16.67.24.81.65.23,1.17.66,1.72,1.03.21.15.54.22.33.57-.15.25-.73.4-.88.2-.55-.7-1.53-.75-2.07-1.44-.33-.43-.56.18-.88.07-.25-.08-.18.21-.19.36-.01.2-.01.41,0,.61.01.26-.16.23-.33.24-.22.01-.3-.07-.29-.29.01-.37,0-.75,0-1.2Zm.82-1.89c0,.3-.02.41,0,.5.03.14.06.37.14.41.23.08.48.02.59-.22.13-.28.21-.59.27-.89.02-.09-.09-.28-.15-.29-.26-.02-.57-.07-.78.05-.12.07-.08.42-.09.45Z" fill="#4f5353" stroke-width="0"/>
  <path d="m20.92,3.83c.81-.08,1.39.44,2,.81.36.22.67.58.93.93.15.21.27.57.2.81-.11.38-.09.86-.48,1.12-.53.35-1.07.69-1.62,1-.16.09-.4.08-.59.03-.29-.07-.05-.4-.17-.5-.3-.25-.14-.56-.19-.84-.08-.48.19-1.01-.2-1.44-.02-.02,0-.07,0-.1.06-.31.23-.65.14-.91-.07-.19-.49-.23-.72-.38-.07-.04-.05-.26-.02-.38.01-.06.13-.13.21-.14.17-.02.34,0,.51,0Zm.6,1.03s-.11.13-.1.2c.06.55.16,1.09.18,1.63.01.27.09.48.3.58.2.1.43.07.62-.14.22-.24.59-.34.7-.71.13-.44-.49-.51-.43-.91-.32.01-.32-.34-.51-.45-.21-.12-.48-.14-.77-.21Z" fill="#4f5353" stroke-width="0"/>
  <path d="m9.83,8.19c.01.17-.32.72-.48.7-.12,0-.31-.17-.33-.29-.05-.26.02-.55-.03-.81-.05-.26-.1-.62-.52-.29-.06.05-.2,0-.3,0-.24,0-.54-.08-.69.04-.13.1-.06.43-.12.65-.05.18-.16.35-.27.5-.06.09-.25.21-.27.19-.14-.12-.41-.28-.23-.47.23-.25.19-.51.15-.75-.07-.48.15-.9.29-1.32.14-.39.38-.73.34-1.19-.02-.25.36-.65.6-.71.28-.07.43.11.6.28.39.38.7.79.64,1.37-.01.1-.03.27.01.29.73.39.12,1.23.6,1.7.02.02,0,.07,0,.1Zm-2.06-1.92c.03.12.03.34.12.4.1.07.32.03.46-.04.23-.11.35-.48.22-.67-.13-.2-.3-.34-.58-.29-.39.08-.13.37-.22.6Z" fill="#4f5353" stroke-width="0"/>
  <path d="m30.68,6.17c-.08.44-.14.89-.24,1.33-.09.38-.92,1-1.34,1.03-.5.04-.93-.24-1.18-.79-.13-.29-.39-.65-.3-.86.12-.29.08-.59.18-.84.17-.41.46-.77.41-1.27,0-.09.15-.23.26-.29.28-.15,1.07-.01,1.3.21.15.14.28.3.44.43.33.27.55.59.48,1.05Zm-.8.26c-.06-.31-.09-.54-.16-.75-.03-.07-.23-.16-.27-.13-.37.27-.71.58-1.08.85-.28.21-.25.54-.15.73.11.24.39.47.64.55.32.1.62-.1.76-.41.13-.29.19-.61.27-.85Z" fill="#4f5353" stroke-width="0"/>
</svg>