<?xml version="1.0" encoding="UTF-8"?>
<svg id="Layer_1" data-name="Layer 1" xmlns="http://www.w3.org/2000/svg" viewBox="0 0 97.05 12.69">
  <path d="m1.91,9.45c-.29-.08-.6-.11-.86-.25-.22-.11-.37-.27-.57,0,0,.01-.2-.06-.25-.13-.25-.35-.29-.81-.15-1.13.15-.35.12-.66.14-.99.02-.55,0-1.11,0-1.66,0-.77,0-.76.75-1.16.49-.26.94-.32,1.39.11.12.12.39.1.31.38-.05.16.28.26.02.49-.14.12.04.47-.18.71-.11.12-.03.39.18.52.12.07.23.15.36.18.52.12.76.57.76.97,0,.47-.05,1.05-.53,1.37-.4.27-.81.59-1.37.59Zm.94-1.73c.09-.27-.09-.44-.37-.55-.45-.17-.89-.07-1.29.12-.43.21-.34.84-.04,1,.32.18.67.28,1.04.21.42-.08.65-.35.67-.79Zm-1.93-2.19c0,.26,0,.35,0,.43,0,.22.27.37.46.24.09-.06.18-.15.24-.24.19-.29.19-.62.18-.96,0-.05-.02-.11-.06-.14-.11-.1-.57,0-.63.15-.09.22-.16.45-.18.52Z" fill="#4f5353" stroke-width="0"/>
  <path d="m80.31,7.11c.2-.71.27-1.61.69-2.43.2-.39.48-.46.87-.28.49.24.66.71.9,1.14.07.12.16.24.17.36.03.34.17.34.37.14.32-.3.63-.6.92-.93.24-.26.51-.26.77-.13.4.2.85.39.74.98.27.35.15.76.18,1.15.03.3-.09.61.15.9.11.14.05.46,0,.68-.03.15-.16.28-.25.42-.15-.1-.38-.18-.43-.32-.11-.31-.21-.65-.18-.97.05-.53-.19-.99-.2-1.5,0-.21-.17-.34-.4-.36-.22-.02-.23.11-.33.27-.16.27-.28.52-.34.83-.04.22-.23.44-.39.62-.46.52-.68.51-.98-.12-.23-.48-.35-1.02-.54-1.52-.06-.15-.14-.31-.26-.41-.12-.11-.36.04-.44.2-.21.43-.16.88-.17,1.33-.01.33-.03.66-.45.76-.17.04-.4,0-.42-.14-.02-.17,0-.35,0-.69Z" fill="#4f5353" stroke-width="0"/>
  <path d="m36.98,7.57c0,.4-.04.76.01,1.1.05.32-.13.37-.34.46-.27.11-.54.01-.53-.25.01-.3-.05-.59.09-.92.14-.35.07-.79.07-1.19,0-.12.08-.32-.15-.33-.13,0-.31.02-.38.11-.2.23-.36.49-.51.74-.19.33-.32.7-.55.99-.34.44-.64.34-.86-.16-.34-.77-.38-1.64-.87-2.35-.05-.08-.13-.21-.18-.2-.1.02-.2.1-.27.18-.05.06-.05.15-.08.23-.18.64-.4,1.27-.36,1.95.01.23-.1.48-.19.7-.02.06-.21.09-.31.07-.07-.02-.18-.13-.18-.2-.04-.73.07-1.44.32-2.14.16-.46.25-.95.38-1.42.06-.21.13-.42.25-.59.18-.28.53-.29.71-.01.22.34.51.68.54,1.08.03.45.29.76.46,1.13.26.54.43.55.78.03.29-.44.55-.9.94-1.27.13-.12.24-.41.47-.23.22.17.53.18.61.6.13.65.14,1.29.15,1.89Z" fill="#4f5353" stroke-width="0"/>
  <path d="m13.5,9.21c-.42.11-.7-.08-1.02-.31-.2-.14-.53-.42-.81-.04-.14.19-.33.23-.53.19-.12-.03-.36-.62-.27-.74.29-.36.13-.77.16-1.16.07-.65.12-1.29.18-1.94,0-.07.08-.18.12-.18.54,0,1.04-.32,1.59-.18.2.05.41.15.58.28.27.21.33.52.15.83-.31.53-.24.58.31.85.19.09.45.12.55.27.18.26.29.58.36.9.05.24.04.49-.21.7-.35.28-.61.74-1.16.52Zm-.2-.85c.2,0,.42.04.61-.01.11-.03.22-.19.26-.31.02-.07-.08-.21-.15-.27-.43-.37-.96-.27-1.46-.27-.04,0-.1.05-.12.1-.15.32.08.74.43.77.14.01.29,0,.44,0Zm-.41-2.48c-.19-.12-.32-.28-.42-.25-.17.04-.34.17-.48.3-.06.05-.08.23-.03.28.08.1.27.24.32.21.2-.13.37-.32.61-.54Z" fill="#4f5353" stroke-width="0"/>
  <path d="m72.26,8.73c-.2-.08-.4-.14-.6-.24-.49-.24-.99-.43-1.44-.76-.25-.18-.61-.21-.93-.28-.03,0-.12.11-.12.18-.02.22.06.48-.2.62-.15.08-.35.21-.48.17-.26-.08-.5-.55-.37-.69.25-.26.12-.55.16-.82.06-.36.16-.71.16-1.07,0-.35.09-.66.19-.98.11-.37.15-.37.57-.27.22.05.46.08.68.04.52-.1.9.24,1.32.41.15.06.34.27.34.42,0,.19-.11.42-.23.59-.17.23-.39.43-.61.62-.15.13-.13.26.02.3.41.11.71.4,1.08.56.12.05.27.08.41.07.33-.02.44.26.6.44.09.1.1.4.01.49-.11.12-.34.12-.57.18Zm-2.57-3.21c-.06,0-.12,0-.17,0-.24-.03-.36.02-.36.31,0,.61-.01.61.65.39.05-.02.12,0,.17,0,.29-.02.4-.28.57-.45-.24-.05-.4-.31-.69-.25-.06.01-.12,0-.17,0Z" fill="#4f5353" stroke-width="0"/>
  <path d="m76.57,8.19c-.06,0-.12,0-.17,0-.41-.03-.83.11-1.2-.3-.28-.3-.45-.63-.59-.99-.12-.3-.25-.66-.18-.95.06-.29.05-.63.22-.86.17-.24-.04-.6.18-.7.24-.11.56-.05.85-.05.59,0,1.19-.06,1.76.17.22.09.46.17.66.3.12.08.19.24.29.36-.2.06-.44.23-.59.17-.65-.28-1.31-.06-1.96-.12-.11,0-.26.11-.34.21-.1.12-.1.26.12.3.38.08.75.24,1.15.18.17-.03.35-.01.52,0,.08,0,.2.01.23.06.09.13.19.29.2.44,0,.22-.15.36-.38.37-.47,0-.93,0-1.4.01-.05,0-.13.11-.13.17,0,.06.08.16.13.17.44.07.88.12,1.32.18.06,0,.12-.01.17,0,.3.07.5.28.46.48-.05.27-.2.39-.54.4-.26,0-.52,0-.79,0Z" fill="#4f5353" stroke-width="0"/>
  <path d="m57.24,6.28c0-.47,0-.93,0-1.4,0-.09.08-.27.11-.27.22,0,.47-.12.64.13.03.05.07.15.05.18-.11.12-.18.31-.02.35.16.04.29.23.56.05.42-.28.99-.22,1.44-.54.17-.12.65.21.72.48.06.25-.06.46-.29.56-.28.12-.67.18-.73.47-.06.27.24.53.4.78.29.45.51.95.75,1.44.05.09.05.22.04.33,0,.13.07.33-.16.31-.18-.01-.4.13-.54-.12-.4-.71-.82-1.41-1.22-2.12-.25-.43-.65-.52-.99-.17-.06.06-.1.25-.05.31.26.36.12.77.17,1.16.05.34-.31.18-.38.36-.1-.06-.27-.1-.3-.18-.08-.26-.24-.49-.22-.79.04-.43.01-.87.01-1.31Z" fill="#4f5353" stroke-width="0"/>
  <path d="m46.6,5.98c.11.45-.07.76-.4,1.06-.57.53-1.28.84-1.95,1.2-.2.11-.51.03-.77.02-.45-.01-.5-.1-.39-.59.03-.11.06-.25.01-.34-.3-.57-.21-1.12,0-1.69.08-.23,0-.52.02-.78.01-.15-.11-.36.12-.45.2-.07.49-.23.61-.16.33.22.66.16.99.14.51-.03.9.24,1.28.49.37.25.64.59.48,1.08Zm-2.96.68c0,.38.17.61.45.55.55-.13,1.1-.31,1.53-.68.16-.14.3-.46.25-.63-.06-.19-.17-.57-.56-.43-.4-.35-.88-.11-1.32-.17-.05,0-.16.07-.17.13-.07.41-.12.82-.18,1.24Z" fill="#4f5353" stroke-width="0"/>
  <path d="m41.01,6.35c.08.51-.13,1.11.16,1.69.14.27-.15.62-.54.79-.03.01-.12-.04-.14-.08-.11-.22-.22-.45-.18-.71.02-.2.06-.43-.01-.61-.06-.15-.18-.37-.46-.26-.15.06-.31.12-.47.14-.25.03-.53-.07-.49.38.01.14-.22.32-.37.44-.08.07-.12.32-.3.14-.09-.09-.17-.24-.17-.36,0-.25-.16-.58.29-.67.05-.01.02-.37.06-.57.03-.16.04-.39.14-.45.49-.3.63-.84.92-1.27.14-.21.24-.47.53-.56.16-.05.21-.36.49-.17.24.17.57.22.54.64-.03.46,0,.93,0,1.48Zm-1.36-.09c.47.03.65-.14.66-.48,0-.2-.1-.23-.26-.22-.15.01-.45.4-.43.57,0,.08.05.15.04.12Z" fill="#4f5353" stroke-width="0"/>
  <path d="m49.6,7.4c-.12,0-.23,0-.35,0-.19,0-.4-.06-.41.27,0,.13-.22.26-.36.37-.06.04-.16.05-.23.04-.03,0-.07-.09-.08-.13-.03-.52,0-1,.4-1.41.21-.21.31-.51.47-.76.31-.49.56-1.03,1.03-1.41.12-.09.34-.15.46-.1.12.05.22.25.26.4.07.27-.1.57.12.83.19.22-.07.57.23.79.08.06,0,.33.02.51.02.3-.1.63.16.9.06.06.02.23,0,.34-.03.29-.26.47-.52.42-.14-.03-.32-.37-.23-.54.17-.33-.07-.44-.27-.5-.22-.06-.46-.01-.7-.01Zm.67-1.41s-.03-.13-.09-.15c-.06-.03-.16,0-.23.05-.21.14-.27.34-.18.58.01.03.1.07.14.06.25-.06.37-.22.35-.53Z" fill="#4f5353" stroke-width="0"/>
  <path d="m17.31,7.78c-.05-.33.02-.69.4-.97.19-.14.32-.38.44-.6.37-.67,1.14-.88,1.73-.43.33.25.67.55.76.99.09.48-.03.95-.23,1.39-.09.2-.23.37-.37.55-.48.62-1.35.73-2.03.27-.02-.02-.04-.04-.06-.06-.78-.52-.61-.27-.64-1.13Zm2.63-.69s-.03-.23-.13-.33c-.27-.25-.61-.35-1-.33-.34.02-.39.26-.49.49-.02.05-.08.09-.12.12-.31.28-.23.63-.11.95.08.22.88.42,1.12.32.35-.14.73-.7.73-1.22Z" fill="#4f5353" stroke-width="0"/>
  <path d="m54.46,9.15c-.46.15-.7-.32-1.07-.48-.27-.12-.12-.41-.13-.63,0-.03.18-.12.27-.1.27.04.53.12.8.16.1.01.21-.05.31-.08-.04-.1-.08-.2-.12-.3-.03-.08-.02-.2-.07-.23-.54-.35-.51-1.04-.88-1.47-.26-.31-.12-.68-.31-1.02-.19-.36.43-.9.84-.74.37.14.79.26,1.05.6.08.1.18.3.15.34-.09.12-.26.21-.41.25-.08.02-.19-.09-.3-.1-.16-.02-.31,0-.47,0,.03.16.01.34.09.47.22.38.51.72.72,1.1.21.37.61.63.58,1.16-.05.74-.31,1.05-1.08,1.06Z" fill="#4f5353" stroke-width="0"/>
  <path d="m95.45,5.06c0,.18-.63.8-.83.98-.22.2-.83.55,0,.78.13.04.64.37.75.44.21.13-.19.61-.37.52-.27-.13-.96-.42-1.21-.58-.24-.16-.22-.17-.41.01-.16.15-.46.41-.73.46-.24.04-.42.03-.43-.2,0-.31-.33-.35.13-.51.3-.11.89-.44.86-.68-.02-.16-1.11-.84-1.16-.99-.08-.25-.07-.5.12-.6.7.57,1.19.99,1.29,1.04.24.13,1.1-.76,1.22-.85.14-.12.26-.26.41-.28.2-.03.38.19.38.46Z" fill="#4f5353" stroke-width="0"/>
  <path d="m5.48,7.3c.02-.07.1-.3.17-.54.06-.18.13-.36.17-.54.11-.43.2-.89.81-.86.13-.22.36-.12.55-.16.3-.06.55.09.8.18.34.13.26.45.32.72.05.21.26.43.14.62-.31.54-.02,1.2-.49,1.73-.37.41-.9.73-1.39.55-.61-.22-1.09-.9-1.09-1.72Zm.7-.19c-.15.38.13.64.42.9.34.31.74.22.98-.22.12-.24.28-.47.34-.73.06-.28.09-.62-.01-.86-.07-.17-.43-.19-.62-.33-.17-.12-.25-.1-.44-.02-.57.24-.68.67-.66,1.27Z" fill="#4f5353" stroke-width="0"/>
  <path d="m63.55,5.34c.15.46-.11.96.13,1.42-.2.5.06.95.14,1.42.05.29-.04.55-.16.79-.05.1-.21.17-.34.21-.22.07-.19-.13-.25-.25-.33-.6-.27-1.22-.27-1.88,0-.4.04-.83-.04-1.25-.04-.23-.03-.5.04-.73.04-.13.23-.32.34-.31.12,0,.24.2.34.32.05.06.04.17.06.25Z" fill="#4f5353" stroke-width="0"/>
  <path d="m89.9,7.48c0,.21-.27.54-.48.54-.23,0-.34-.15-.4-.37-.1-.37-.25-.72-.31-1.09-.1-.58-.15-1.17-.2-1.75,0-.09.06-.26.11-.27.13-.02.31,0,.39.08.14.12.28.3.31.48.13.73.4,1.41.58,2.13.02.08,0,.17,0,.26Z" fill="#4f5353" stroke-width="0"/>
  <path d="m23.37,5.96c-.25.04-.36.2-.44.42-.01.04-.25.05-.33,0-.17-.11-.4-.27-.42-.43-.08-.66-.62-1.18-.56-1.88.01-.12-.1-.25-.14-.38-.05-.15.13-.48.26-.45.15.04.39.16.39.26.07.94.64,1.61,1.14,2.34.03.04.06.08.09.12Z" fill="#4f5353" stroke-width="0"/>
  <path d="m26.79,8.01c-.19,0-.3,0-.42,0-.37-.01-.5-.14-.52-.5,0-.09.01-.18,0-.26-.05-.33.16-.31.37-.29.11,0,.22.03.32.07.32.14.63.18.95-.03.13-.08.31-.09.28.13-.02.15.31.19.07.41-.33.3-.62.61-1.04.48Z" fill="#4f5353" stroke-width="0"/>
</svg>