<?xml version="1.0" encoding="UTF-8"?>
<svg id="Layer_1" data-name="Layer 1" xmlns="http://www.w3.org/2000/svg" viewBox="0 0 91.72 12.69">
  <path d="m0,8.19c.07-.93.14-1.87.22-2.8.01-.14.6-.56.82-.57.56-.03,1.11-.02,1.61.33.13.09.19.14.21.29.03.3-.14.53-.26.77-.09.17-.19.34-.31.48-.12.14-.19.2.07.24.27.04.54.09.8.17.65.21.95,1,.53,1.51-.43.52-1.02.85-1.7.93-.56.06-1.13-.07-1.67.18-.15.07-.27-.01-.26-.22,0-.44,0-.87,0-1.31-.01,0-.03,0-.04,0Zm1.91-.57c-.35,0-.49,0-.64,0-.37.01-.51.14-.53.49,0,.12-.02.23,0,.35.04.25.18.41.46.38.54-.06,1.04-.29,1.52-.51.13-.06.28-.26.27-.39-.01-.26-.27-.1-.41-.14-.29-.08-.58-.15-.68-.18Zm-1.17-1.23c-.02.36.05.41.36.25.26-.14.53-.27.78-.44.07-.05.08-.2.09-.3,0-.07-.04-.19-.1-.21-.53-.18-1.1.18-1.12.69Z" fill="#4f5353" stroke-width="0"/>
  <path d="m12.82,9.63c-.2-.07-.37-.16-.55-.21-.35-.08-.7-.15-1.05-.21-.35-.05-.6-.3-.45-.56.24-.39.13-.78.15-1.16.02-.35,0-.7,0-1.05.03-1.22.62-1.22,1.41-1,.1.03.21.06.32.08.57.1.72.38.58.95-.05.2-.11.41.26.49.36.08.69.31,1.02.49.31.17.4.62.18.88-.31.35-.63.7-1,.98-.23.17-.55.2-.86.3Zm-.15-1.82c-.26-.04-.66-.03-.99.23-.04.03-.01.26.03.28.54.2,1.1.26,1.66.18.19-.03.35-.27.52-.41-.16-.09-.31-.22-.48-.26-.19-.05-.4-.01-.75-.01Zm-.78-1.58s-.15.07-.26.13c.09.13.15.33.27.38.17.07.39.05.51-.16.02-.04.06-.11.05-.11-.13-.08-.27-.16-.41-.23-.02-.01-.06,0-.17,0Z" fill="#4f5353" stroke-width="0"/>
  <path d="m20.9,7.27c-.05.3-.01.66-.17.9-.23.35-.4.76-.89.94-.78.29-1.56.06-1.97-.69-.1-.19-.32-.37-.33-.55-.02-.44-.21-.96.48-1.19.38-.13.48-.64.95-.82,1.09-.41,1.87.02,1.88,1.14,0,.09,0,.17,0,.26.01,0,.03,0,.04,0Zm-1.68,1.11c.15-.06.35-.07.45-.18.25-.26.47-.56.66-.86.07-.11-.28-.56-.43-.58-.16-.02-.32.03-.48-.11-.2-.17-.4-.05-.59.12-.19.17-.18.4-.27.59-.12.26-.24.44-.01.67.18.19.36.39.68.35Z" fill="#4f5353" stroke-width="0"/>
  <path d="m22.65,5.04c-.07.18-.14.36-.21.53-.07.19-.2.19-.32.08-.14-.14-.26-.29-.38-.45-.25-.33-.42-.76-.74-.98-.41-.28-.16-.77-.47-1.04.08-.08.17-.24.22-.23.22.05.52.1.63.26.35.5.7,1,1.13,1.44.09.09.09.25.14.39Z" fill="#4f5353" stroke-width="0"/>
  <path d="m5.53,7.82c-.05-.33.02-.69.4-.97.19-.14.32-.38.44-.6.37-.67,1.14-.88,1.73-.43.33.25.67.55.76.99.09.48-.03.95-.23,1.39-.09.2-.23.37-.37.55-.48.62-1.35.73-2.03.27-.02-.02-.04-.04-.06-.06-.78-.52-.61-.27-.64-1.13Zm2.63-.69s-.03-.23-.13-.33c-.27-.25-.61-.35-1-.33-.34.02-.39.26-.49.49-.02.05-.08.09-.12.12-.31.28-.23.63-.11.95.08.22.88.42,1.12.32.35-.14.73-.7.73-1.22Z" fill="#4f5353" stroke-width="0"/>
</svg>