<?xml version="1.0" encoding="UTF-8"?>
<svg id="Layer_1" data-name="Layer 1" xmlns="http://www.w3.org/2000/svg" viewBox="0 0 91.72 12.69">
  <path d="m25.54,7.31c0-.47-.03-.94.01-1.41.02-.18.16-.43.31-.5.15-.07.41.01.57.11.35.21.64.56,1.02.7.35.13.53.64,1.01.46.32.44.93.46,1.28.84.27.3.64.36.86.22.25-.15.46-.51.38-.87-.13-.61.26-1.05.45-1.55.08-.2.25-.49.56-.33.23.11.41.35.29.62-.26.6-.29,1.26-.5,1.86-.1.28-.13.53-.15.81-.04.58-.18.85-.73.97-.22.05-.51-.09-.73-.22-.27-.16-.48-.41-.74-.59-.44-.32-.88-.6-1.44-.73-.41-.1-.75-.45-1.13-.66-.38-.21-.43-.19-.45.17-.04.55-.35,1.07-.24,1.65.01.05-.16.19-.27.21-.16.03-.38.07-.37-.22,0-.51,0-1.01,0-1.52Z" fill="#4f5353" stroke-width="0"/>
  <path d="m33.78,8.6c-.03-.6.24-1.09.46-1.62.23-.55.61-1.02.76-1.6.07-.26.27-.49.42-.73.02-.02.11-.03.14-.01.32.24.67.37.88.83.37.81.33,1.73.75,2.52.1.18.1.42.28.59.3.27.11.63.12.95,0,.07-.25.17-.4.2-.08.02-.24-.04-.27-.1-.13-.25-.2-.52-.32-.77-.08-.16-.21-.4-.34-.42-.38-.07-.77.03-1.13-.21-.07-.05-.3.08-.41.17-.23.19-.43.42-.65.63-.06.06-.14.1-.21.15-.02-.09-.06-.18-.07-.27-.01-.1,0-.2,0-.3Zm1.52-1.22c.36.04.74-.17.69-.34-.05-.18-.24-.41-.4-.43-.21-.03-.4.18-.39.44,0,.13.07.25.1.33Z" fill="#4f5353" stroke-width="0"/>
  <path d="m6.07,7.2c.11-.46.19-.94.34-1.39.05-.16.26-.42.5-.25.16.11.49.24.24.59-.3.41-.15.9-.13,1.35.03.47.66.71,1.11.49.88-.43,1.3-1.35,1.11-2.31-.04-.22.08-.52.22-.73.06-.09.36-.12.48-.06.21.11.43.32.32.61-.21.56-.15,1.16-.29,1.72-.21.81-1.19,1.63-2.03,1.78-.14.02-.34-.04-.41.04-.37.41-.56.07-.74-.17-.67-.89-.66-.89-.72-1.67Z" fill="#4f5353" stroke-width="0"/>
  <path d="m13.34,7.79c.01.06.02.35.14.59.26.52.84.55,1.22.38.66-.3,1.44-.12,2.04-.61.15-.12.29.05.31.28.02.31-.18.55-.39.55-.45.01-.82.23-1.11.48-.38.34-.94,0-1.26.41-.02.03-.15.02-.2-.01-.47-.33-1.04-.59-1.38-1.03-.35-.46-.31-1.05-.09-1.67.15-.43.13-.96.59-1.16.49-.21.94-.66,1.54-.47.32.1.63.26.88.47.1.08.02.37.03.57-.12-.03-.25-.04-.37-.08-.13-.04-.25-.1-.37-.15-.83-.37-1.52.01-1.58.9,0,.11,0,.22,0,.55Z" fill="#4f5353" stroke-width="0"/>
  <path d="m19.22,7.37c0-.33-.03-.66,0-.98.04-.33.28-.49.6-.44.1.01.24.14.25.23.01.2-.01.42-.08.61-.18.45-.18.85.09,1.28.31.5.95.68,1.38.31.21-.19.56-.41.56-.62.02-.58.72-.91.48-1.56-.07-.19,0-.43-.01-.65,0-.37.27-.24.46-.25.21-.01.47-.06.41.3-.07.48-.08.98-.24,1.42-.12.34-.21.65-.2,1.01,0,.12-.07.27-.16.36-.41.42-.86.78-1.39,1.08-.57.32-.9.05-1.3-.18-.35-.2-.41-.7-.83-.83v-1.08h0Z" fill="#4f5353" stroke-width="0"/>
  <path d="m2.38,4.87s.07,0,.11,0c.19.04.47-.13.56.15.12.4-.36.21-.49.42-.06.09-.32.07-.5.08-.66.05-1.17.57-1.19,1.21,0,.29.01.58,0,.87-.02.31.26.4.39.6.22.35.3-.12.5-.08.65.15.97-.44,1.44-.7.37-.2.7-.44,1.15-.38.17.02.27.04.12.23-.1.13-.14.39-.24.41-.94.2-1.48,1.06-2.37,1.35-.75.25-1.02.24-1.41-.38-.53-.84-.58-1.46-.16-2.42.14-.33.31-.67.56-.92.28-.29,1.07-.45,1.54-.45Z" fill="#4f5353" stroke-width="0"/>
  <path d="m38.72,4.65c-.85.03-1.35-.54-1.85-1.1-.07-.08-.03-.25-.03-.39,0-.3.26-.47.52-.31.16.1.28.28.45.38.38.22.77.41,1.15.62.08.05.18.13.21.21.05.15.1.31.08.46,0,.06-.21.09-.32.12-.06.02-.13,0-.2,0Z" fill="#4f5353" stroke-width="0"/>
</svg>