<?xml version="1.0" encoding="UTF-8"?>
<svg id="Layer_1" data-name="Layer 1" xmlns="http://www.w3.org/2000/svg" viewBox="0 0 91.72 12.69">
  <path d="m1.94,5.37c-.29,0-.59-.02-.87.01-.12.01-.22.16-.33.24.1.03.19.06.29.1.72.24,1.46.16,2.2.18.16,0,.34.03.48.1.15.08.28.23.09.41-.36.36-.67.71-1.29.39-.32-.17-.8-.05-1.21-.02-.13.01-.27.16-.37.27-.02.03.08.19.15.27.07.07.17.14.26.14.41.01.82,0,1.22,0,.17,0,.36-.04.52,0,.22.07.47.16.61.32.1.13-.36.52-.64.54-.36.03-.71-.03-1.07.16-.37.2-.75-.18-1.14-.17-.03,0-.06-.13-.1-.2C.27,7.27-.09,6.38.02,5.37c.02-.14,0-.29,0-.44.02-.27.33-.59.6-.61.17-.01.42-.08.51.01.31.3.67.09.99.16.46.1.92-.05,1.31-.22.27-.12.4-.14.56.08.06.08-.08.63-.2.65-.38.06-.64.45-1.07.38-.25-.04-.52,0-.79,0Z" fill="#4f5353" stroke-width="0"/>
  <path d="m46.24,8.48c-.78,0-.95-.15-.94-.77,0-.27-.08-.55.08-.84.09-.15-.2-.38.06-.63.13-.12.06-.51.01-.76-.07-.39.19-.7.19-1.06,0-.09.11-.21.2-.26.32-.17.71.02,1.05-.22.12-.08.46.11.66.24.32.2.48.72.27,1.11-.15.27-.03.37.12.49.17.14.35.32.54.36.53.11.58.65.91.93.03.03.03.14,0,.18-.24.25-.49.5-.74.74-.06.06-.13.11-.21.13-.41.07-.82.12-1.23.18-.38.06-.76.14-.98.17Zm1.13-2c-.38.14-.75.31-1.13.41-.16.04-.26.05-.25.24,0,.23-.03.56.23.58.33.02.73-.04.99-.22.26-.18.49-.26.78-.24.14,0,.3.03.29-.19,0-.17,0-.27-.23-.36-.22-.08-.41-.14-.67-.22Zm-.94-.8c.44.01.61-.12.6-.49,0-.07-.04-.18-.1-.2-.28-.13-.68.05-.77.31-.07.22.04.38.27.38Z" fill="#4f5353" stroke-width="0"/>
  <path d="m54.4,5.08c.05.38-.09.75-.39,1.09-.24.27-.18.52.11.71.16.11.34.18.48.31.3.29.64.44,1.06.41.14-.01.29-.01.43.02.22.06.28.37.12.54-.33.36-.65.44-1.13.19-.55-.29-1.12-.57-1.62-.94-.28-.21-.54-.13-.81-.15-.05,0-.1.16-.17.22-.19.14-.09.5-.46.51-.16,0-.4,0-.41-.15-.01-.23-.08-.51.03-.68.38-.62.31-1.3.32-1.97,0-.62.21-.84.83-.91.17-.02.35,0,.51-.03.77-.19,1.11.04,1.11.84Zm-1.03.02c-.13.06-.29.18-.47.21-.17.03-.29.07-.24.25.04.15.12.32.23.42.05.04.25-.04.34-.11.14-.1.27-.23.37-.37.06-.07.07-.2.06-.29,0-.04-.14-.05-.29-.11Z" fill="#4f5353" stroke-width="0"/>
  <path d="m19.59,5.91c.06.28-.06.53-.32.77-.32.29-.26.33.07.66.32.32.61.59,1.11.51.1-.02.27.12.32.23.04.09-.04.26-.12.35-.31.35-.3.29-.78.15-.58-.17-1.04-.57-1.61-.75-.13-.04-.24-.13-.37-.16-.34-.05-.44,0-.39.33.05.38-.12.61-.38.8-.1.07-.27.09-.4.07-.05,0-.09-.18-.11-.28-.08-.38.09-.71.17-1.06.08-.32,0-.65.12-1,.15-.41.05-.91.06-1.37.01-.58.07-.66.63-.65.36.01.7-.03,1.07.14.74.34.93.48.92,1.26Zm-.7-.06c0-.06.01-.12,0-.17-.05-.18-.89-.49-1.04-.39-.14.09-.38,1.01-.29,1.12.06.07.11.15.18.18.37.15,1.11-.32,1.15-.73Z" fill="#4f5353" stroke-width="0"/>
  <path d="m12.91,4.26c.3.07.62.14.93.23.68.2.83.51.58,1.21-.21.57-.61,1.03-1.15,1.33-.16.09-.38.05-.57.09-.18.04-.4.07-.53.19-.1.09-.11.31-.1.46,0,.22-.04.4-.22.52-.11.08-.24.22-.34.21-.27-.03-.11-.27-.14-.42-.05-.2-.1-.4-.1-.6,0-.19.08-.38.1-.57.02-.23-.03-.47.01-.7.06-.38.16-.75.21-1.14.03-.24.26-.52.48-.65.22-.14.54-.12.86-.18Zm.95,1.02c-.17-.09-.32-.23-.48-.25-.14-.02-.3.16-.44.15-.52-.06-.68.19-.75.66-.06.4-.03.59.35.57.5-.02.89-.24,1.11-.71.06-.12.12-.23.22-.42Z" fill="#4f5353" stroke-width="0"/>
  <path d="m7.72,7.8c-.47.09-.86-.05-1.18-.36-.12-.11-.31-.2-.23-.42.06-.16.46-.36.58-.24.26.26.54.13.82.15.05,0,.15-.09.15-.14,0-.06-.05-.18-.1-.19-.23-.08-.48-.12-.71-.18-.51-.15-.77-.54-.92-1.01-.07-.23.31-.95.59-1.06.28-.11.59-.2.88-.19.38.02.76.12,1.12.23.13.04.28.18.16.41-.15.3-.35.5-.52.38-.37-.28-.78-.13-1.16-.15-.11,0-.23.14-.34.22.06.08.1.19.18.24.2.15.41.38.62.38.47.01.74.35,1.09.56.12.07.23.22.26.36.03.13-.01.32-.1.41-.33.35-.62.81-1.2.6Z" fill="#4f5353" stroke-width="0"/>
  <path d="m27.52,4.49c.6-.04,1.26.07,1.88.35.1.04.3.02.31.07.05.16.06.34.04.51-.03.21-.28.3-.51.23-.6-.19-1.02.02-1.05.63-.03.69.03,1.38.07,2.07.01.2-.28.56-.47.53-.05,0-.11-.04-.14-.08-.12-.18-.33-.36-.34-.55-.02-.6.03-1.2.06-1.8.01-.22.06-.44.09-.66.03-.2-.09-.23-.26-.23-.25,0-.48.03-.73-.15-.18-.13-.41-.18-.4-.45,0-.12.08-.28.18-.35.1-.07.26-.08.4-.09.26-.01.52,0,.86,0Z" fill="#4f5353" stroke-width="0"/>
  <path d="m36.47,7.05c.14-.82.26-1.65.43-2.47.02-.12.25-.29.37-.27.19.02.42.24.3.42-.27.43-.06.93-.28,1.38-.14.28-.09.69-.05,1.02.06.48.78.86,1.32.62.52-.23,1.02-.06,1.52-.12.03,0,.14.23.12.25-.21.17-.32.44-.69.46-.37.02-.71.25-1.08.32-.34.06-.7.05-1.05,0-.31-.04-.38-.5-.74-.53-.04,0-.1-.18-.1-.28-.01-.26,0-.52,0-.79-.02,0-.04,0-.06-.01Z" fill="#4f5353" stroke-width="0"/>
  <path d="m23.27,5.8c.09.31-.1.7.15,1.1.17.28-.1.73.2,1.05.01.02.01.06,0,.08-.1.21.21.55-.18.66-.28.08-.63-.25-.7-.6-.06-.27-.14-.53-.17-.8-.03-.29,0-.58,0-.87,0-.5.02-.99,0-1.49-.01-.27.13-.27.32-.26.19.01.44-.07.39.28-.01.09,0,.17,0,.26v.59Z" fill="#4f5353" stroke-width="0"/>
  <path d="m41.75,7.34c.14-.8.27-1.55.23-2.32,0-.12.23-.36.36-.36.18,0,.36.17.32.41-.07.41.19.87-.17,1.23.07.44-.12.9.11,1.35.15.3-.14.78-.46.83-.05,0-.16-.07-.17-.13-.09-.34-.15-.69-.22-1.01Z" fill="#4f5353" stroke-width="0"/>
  <path d="m58.71,5c-.29,0-.59-.02-.87.01-.12.01-.22.16-.33.24.1.03.19.06.29.1.72.24,1.46.16,2.2.18.16,0,.34.03.48.1.15.08.28.23.09.41-.36.36-.67.71-1.29.39-.32-.17-.8-.05-1.21-.02-.13.01-.27.16-.37.27-.02.03.08.19.15.27.07.07.17.14.26.14.41.01.82,0,1.22,0,.17,0,.36-.04.52,0,.22.07.47.16.61.32.1.13-.36.52-.64.54-.36.03-.71-.03-1.07.16-.37.2-.75-.18-1.14-.17-.03,0-.06-.13-.1-.2-.46-.87-.82-1.76-.7-2.77.02-.14,0-.29,0-.44.02-.27.33-.59.6-.61.17-.01.42-.08.51.01.31.3.67.09.99.16.46.1.92-.05,1.31-.22.27-.12.4-.14.56.08.06.08-.08.63-.2.65-.38.06-.64.45-1.07.38-.25-.04-.52,0-.79,0Z" fill="#4f5353" stroke-width="0"/>
</svg>