<?xml version="1.0" encoding="UTF-8"?>
<svg id="Layer_1" data-name="Layer 1" xmlns="http://www.w3.org/2000/svg" viewBox="0 0 91.72 12.69">
  <path d="m40.14,9.28c.09-.36-.15-.8.19-1.24.2-.26-.28-.67-.65-.56-.22.07-.54.27-.65.19-.33-.27-.77-.34-1.03-.18-.42.27-.85.64-.98,1.2-.04.19-.08.38-.16.56-.15.34-.23.71-.68.85-.16.05-.23.16-.37-.01-.1-.12-.16-.16-.07-.37.2-.41.31-.86.51-1.29.24-.52.53-1.02.64-1.62.1-.52.36-1.03.82-1.42.42-.36.81-.82,1.03-1.32.43-.96,1.34-1.33,2.07-1.91.14-.11.26-.33.57-.07.23.19.66.2.62.6-.05.6.27,1.23-.17,1.8-.08.11-.05.32-.03.48.05.69-.08,1.33-.36,1.97-.14.32-.04.72-.11,1.08-.07.4-.26.73,0,1.18.28.48-.17.85-.52,1.13-.13.11-.39.11-.57.07-.07-.02-.11-.28-.12-.43-.02-.21-.01-.42-.02-.69Zm-.7-3.61c1.26-.02,1.6-.35,1.63-1.35,0-.21,0-.41-.01-.62-.02-.35-.1-.32-.47-.24-.74.17-.79.95-1.26,1.35-.22.18-.31.51-.47.77.27.04.55.08.58.09Z" fill="#87b8cf" stroke-width="0"/>
  <path d="m12.19,8.08c.14.45-.22,1.06.27,1.56.04.04-.02.25-.09.32-.2.2-.41.39-.65.54-.47.3-.48.29-.49-.21-.01-.54-.04-1.09-.02-1.63.01-.35-.22-.64-.46-.62-.55.04-1.11-.16-1.68.19-.4.24-.64.39-.64.88,0,.21-.14.45-.29.62-.09.1-.15.45-.42.22-.12-.1-.24-.25-.26-.39-.02-.23.03-.48.07-.71.04-.23.15-.46.13-.69-.06-.8-.08-.81.24-1.32.52-.82.77-1.77,1.21-2.63.14-.28.29-.56.48-.8.6-.74.59-.7,1.56-.26.34.16.48.28.48.68,0,.48-.18,1,.15,1.44.31.4-.05.92.33,1.39.23.28.06.89.06,1.44Zm-1.29-2.46c0-.33.03-.67-.04-1-.03-.13-.33-.33-.42-.29-.46.19-1.13,1.66-1.03,2.18.02.09.12.25.19.25.41,0,.86.05,1.21-.09.13-.05.06-.6.09-.92,0-.04,0-.08,0-.12Z" fill="#87b8cf" stroke-width="0"/>
  <path d="m25.73,7.36c0-.33-.02-.67-.01-1,0-.55.31-1.12.75-1.55.26-.25.49-.55.71-.84.26-.34.59-.33,1.1-.33,1.22,0,1.54.72,1.71,1.74.06.38.38.76.22,1.14-.22.53-.1,1.11-.31,1.62-.26.6-.52,1.25-.96,1.72-.37.4-.98.6-1.5.85-.1.05-.31-.05-.43-.14-.85-.65-1.34-1.49-1.27-2.59.01-.21,0-.42,0-.63Zm.75-.02c0,.21,0,.42.01.62.08,1.18.93,1.64,1.87.98.18-.12.23-.42.4-.56.39-.32.07-.82.3-1.12.53-.7-.09-1.3-.13-1.95-.01-.21-.34-.42-.69-.38-.42.05-.24.34-.28.55,0,.04,0,.08,0,.12.01.35-.17.48-.44.26-.25-.2-.37-.17-.62,0-.56.39-.42.93-.42,1.46Z" fill="#87b8cf" stroke-width="0"/>
  <path d="m18.4,3.36c.5,0,1,0,1.5-.03.54-.03,1.01.06,1.48.37.27.18.53.22.5.67-.03.42-.19.48-.53.45-.08,0-.2.04-.24,0-.41-.39-.82-.14-1.15.08-.37.24-.5.67-.6,1.12-.16.69-.1,1.41-.44,2.07-.07.13.03.41.15.55.36.44-.34.6-.22.96-.16.02-.35.09-.48.04-.26-.11-.44-.29-.46-.64-.06-.9.23-1.74.35-2.61.03-.19.1-.38.11-.58.04-.89.03-.92-.91-.91-.43,0-.76-.19-1.1-.37-.22-.12-.4-.83-.27-1,.06-.08.21-.12.32-.13.67-.02,1.34-.03,2-.04Z" fill="#87b8cf" stroke-width="0"/>
  <path d="m3.47,9.65c-.56.04-1.09,0-1.66.24-.58.26-1.68-.54-1.73-1.2-.04-.51-.22-1.06.13-1.55.04-.06.06-.14.07-.22.07-.92.14-1.85.21-2.77,0-.08.01-.17,0-.25-.1-.47.33-.62.55-.9.02-.02.21.04.25.1.19.31.53.58.37,1.02-.04.11-.15.21-.15.31.03.88-.17,1.73-.4,2.57-.04.14.23.38.17.48-.14.29-.41.6-.13.86.16.15.55.08.83.07.31-.02.6,0,.93-.17.64-.34,1.31.04,1.92.29.12.05.26.36.21.49-.08.23-.25.54-.45.59-.35.1-.74.04-1.12.04Z" fill="#87b8cf" stroke-width="0"/>
</svg>