<?xml version="1.0" encoding="UTF-8"?>
<svg id="Layer_1" data-name="Layer 1" xmlns="http://www.w3.org/2000/svg" viewBox="0 0 91.72 12.69">
  <path d="m38.66,10.55c-.39,0-.65,0-.9,0-1.01-.01-1.39-.58-1.12-1.57.16-.58.29-1.17.33-1.76.03-.38.19-.7.26-1.04.16-.8.38-1.6.28-2.43-.06-.47.12-.74.64-.87.64-.17,1.23-.51,1.86-.73.37-.13.88.21,1.1.65.33.67.32,1.44-.02,2.09-.05.1-.07.24-.15.31-.67.65-.68.65.09,1.02.11.05.21.1.32.14.74.28,1.11.75,1.03,1.6-.07.72-.14,1.36-.95,1.64-.22.08-.37.32-.57.45-.71.46-1.49.64-2.19.51Zm-.9-2.39c-.01.72.08.6.45.89.6.46,1.06-.01,1.58-.02.57-.01,1-.3,1.34-.71.14-.17.24-.48.18-.66-.06-.18-.34-.35-.55-.4-.39-.09-.9.04-1.19-.17-.5-.36-.69.42-1.13.17-.25-.14-.42.05-.45.38-.03.26-.21.5-.22.53Zm2.09-4.5c-.89,0-1.57.63-1.58,1.35,0,.4.29.64.63.43.45-.27.86-.61,1.23-.98.14-.14.17-.45.14-.67,0-.07-.35-.11-.42-.12Z" fill="#87b8cf" stroke-width="0"/>
  <path d="m6.6,10.29c-.15-.19-.26-.27-.27-.36-.02-.29-.02-.59,0-.89.01-.34-.05-.61-.32-.9-.38-.41-.3-1.11.17-1.26.62-.2.7-.69.91-1.15.42-.93.83-1.86,1.29-2.77.11-.21.42-.44.63-.43.21,0,.45.26.62.45.13.14.28.36.25.52-.16.89.36,1.7.27,2.57-.05.46.11.78.45,1.1.47.45.44.48.02,1.13-.1.16-.25.44-.19.54.53.79-.21,1.06-.57,1.47-.16.19-.37.18-.46-.1-.1-.3-.2-.6-.25-.91-.04-.25.06-.54-.03-.75-.08-.19-.38-.44-.53-.41-.37.07-.74.27-1.07.46-.35.21-.43.56-.44.97,0,.22-.27.43-.46.72Zm1.78-3.46c.21,0,.45.06.63-.02.14-.06.32-.38.29-.42-.34-.38-.08-.82-.17-1.22-.03-.14-.13-.36-.2-.36-.21,0-.49-.16-.58.25-.08.38-.31.72-.45,1.09-.18.51-.06.68.47.67Z" fill="#87b8cf" stroke-width="0"/>
  <path d="m27.59,6.17c-.2.83-.27,1.7-.62,2.44-.22.47-.8.86-1.31,1.06-.41.16-.96.04-1.44-.03-1.04-.15-1.51-1.09-2.22-1.7-.08-.83-.61-1.61-.24-2.49.12-.29.25-.58.36-.87.3-.83.92-1.17,1.77-1.21.52-.02,1.08.17,1.56-.24.09-.07.33-.02.47.04.55.27,1.06.61,1.24,1.24.17.57.28,1.16.43,1.75Zm-1.07.1s-.02,0-.03,0c0-.34.09-.7-.02-1-.21-.61-.82-.72-1.56-.42-.41.17-.84.58-1.24-.08-.2-.32-.49-.05-.59.16-.29.63-.51,1.29-.39,2,.1.6.53,1,.97,1.38.59.52,1.13.59,1.73.15.67-.5,1.38-1.02,1.13-2.05,0-.04,0-.08,0-.13Z" fill="#87b8cf" stroke-width="0"/>
  <path d="m16.75,2.68c.42,0,.85,0,1.27,0,.45,0,.87.07,1.3.22.34.11.64.17.72.53.05.23-.54.75-.85.78-.21.02-.42,0-.63,0-.79.04-1.23.54-1.32,1.35-.12,1.11-.34,2.2-.25,3.33.04.52-.39.7-.71.93-.22.16-.6-.08-.56-.38.06-.52-.04-1.01.19-1.57.3-.72.25-1.6.3-2.41.02-.41.07-.91-.14-1.19-.14-.19-.71-.04-1.09-.06-.64-.02-.9-.32-.8-.95.06-.35.24-.59.65-.59.64,0,1.27,0,1.91,0Z" fill="#87b8cf" stroke-width="0"/>
  <path d="m3.47,9.46c-.56.04-1.09,0-1.66.24-.58.26-1.68-.54-1.73-1.2-.04-.51-.22-1.06.13-1.55.04-.06.06-.14.07-.22.07-.92.14-1.85.21-2.77,0-.08.01-.17,0-.25-.1-.47.33-.62.55-.9.02-.02.21.04.25.1.19.31.53.58.37,1.02-.04.11-.15.21-.15.31.03.88-.17,1.73-.4,2.57-.04.14.23.38.17.48-.14.29-.41.6-.13.86.16.15.55.08.83.07.31-.02.6,0,.93-.17.64-.34,1.31.04,1.92.29.12.05.26.36.21.49-.08.23-.25.54-.45.59-.35.1-.74.04-1.12.04Z" fill="#87b8cf" stroke-width="0"/>
</svg>