<?xml version="1.0" encoding="UTF-8"?>
<svg id="Layer_1" data-name="Layer 1" xmlns="http://www.w3.org/2000/svg" viewBox="0 0 91.72 12.69">
  <path d="m14.56,6.87c0-.38,0-.76,0-1.14,0-.13.07-.32-.17-.31-.13,0-.28.05-.38.12-.08.05-.12.18-.15.28-.23.76-.57,1.5-.53,2.32.02.29-.25.37-.39.54-.11.12-.25.12-.32-.08-.1-.28-.24-.48-.03-.84.19-.32.31-.77.32-1.17.01-.53.31-.93.45-1.4.13-.45.53-.83.81-1.23.13-.19.28-.16.42,0,.15.17.41.31.47.51.12.4.14.82.19,1.23.01.09,0,.18,0,.26,0,.05.05.1.08.14.04-.04.09-.07.12-.11.39-.51.86-.98,1.15-1.54.15-.29.3-.24.51-.28.27-.05.46.06.59.27.19.29.3.68.16.96-.23.45-.14.9-.14,1.34,0,.56-.1,1.13.15,1.68.13.29-.22.44-.39.61-.1.1-.32.22-.4.17-.12-.06-.21-.26-.23-.41-.03-.23-.07-.49.02-.69.34-.79.05-1.6.14-2.39,0-.04-.05-.13-.08-.13-.08,0-.19,0-.23.05-.2.26-.45.52-.54.82-.14.47-.46.86-.6,1.33-.05.17-.12.49-.46.5-.11,0-.21.14-.31.22-.07-.14-.2-.28-.21-.43-.03-.41-.01-.82-.01-1.22Z" fill="#4f5353" stroke-width="0"/>
  <path d="m60.36,6.38c0-.46,0-.78,0-1.1,0-.23,0-.45.22-.61.09-.07.07-.26.14-.37.08-.13.19-.32.32-.35.4-.1.82-.12,1.23-.19.36-.07.59.1.82.35.32.35.36.75.09,1.13-.22.3-.22.47.07.6.63.28.7.84.8,1.4.01.08.04.21,0,.26-.37.42-.71.92-1.31.98-.58.06-1.16,0-1.74.01-.28,0-.38-.17-.44-.41-.15-.61-.23-1.22-.17-1.7Zm1.91,1.28c.26-.07.53-.12.77-.23.18-.08.32-.21.3-.46-.02-.23-.17-.31-.35-.41-.51-.3-1-.18-1.5.01-.15.06-.33.13-.41.25-.12.19.1.29.21.41.26.27.58.41.98.43Zm-.37-2.86c-.33.01-.56,0-.78.05-.1.03-.21.2-.23.32-.04.23.17.18.3.17.21-.01.42.03.64-.12.18-.12.48-.07.62-.32-.22-.04-.43-.07-.55-.09Z" fill="#4f5353" stroke-width="0"/>
  <path d="m6.73,6.54c.03.68-.31,1.33-.21,2.03.03.19-.37.51-.59.52-.09,0-.27-.09-.26-.12.06-.3-.1-.54-.19-.8-.02-.05-.02-.12,0-.17.05-.14.31-.27.12-.42-.16-.13-.39-.16-.6-.23-.08-.02-.17,0-.26,0-.82,0-.81,0-.84.8,0,.15.12.35-.14.43-.15.04-.3.11-.45.17-.03-.16-.09-.31-.1-.47,0-.28.58-2.94.7-3.11.23-.32.48-.62.73-.92.13-.15.33-.27.42-.44.26-.48.64-.2.93-.12.34.08.59.34.54.76-.09.71.11,1.41.2,2.11Zm-.73-1.26c-.03-.1-.1-.3-.16-.51-.07-.23-.31-.32-.49-.18-.44.36-.7.86-1,1.33-.14.22.08.29.13.3.37.1.75.17,1.13.23.07.01.22-.07.22-.08-.11-.36.21-.64.17-1.1Z" fill="#4f5353" stroke-width="0"/>
  <path d="m25.4,7.5c.04-.25.12-.65.17-1.07.05-.39-.06-.78.16-1.16.09-.15.09-.37.26-.5.13-.1.2-.23.05-.36-.14-.12-.05-.19.04-.25.41-.25.8-.45,1.31-.18.79.43,1.05.97.8,1.91-.08.28-.21.55-.3.84-.02.08.02.22.08.29.33.35.65.71,1.12.87.13.04.26.1.36.18.13.1.22.23.33.34-.12.09-.23.19-.36.27-.11.07-.25.11-.36.19-.15.12-.28.09-.36-.05-.18-.32-.56-.38-.76-.71-.16-.27-.61-.35-.87-.58-.21-.19-.42-.2-.63-.15-.19.04-.49.13-.17.44.06.06.02.22,0,.34-.02.25-.19.43-.42.43-.24,0-.43-.15-.45-.4-.02-.17,0-.35,0-.69Zm1.05-2.08c0,.2-.03.41,0,.6.04.26.35.32.57.17.39-.26.29-.64.29-1,0-.44,0-.44-.38-.44q-.49,0-.49.51c0,.06,0,.11,0,.17Z" fill="#4f5353" stroke-width="0"/>
  <path d="m82.61,6.66c.05-.31.04-.53.13-.69.34-.54.51-1.1.45-1.74-.02-.25.13-.3.48-.2.85.24.87.23,2.22.02.17-.03.36.1.53.17.02,0,.01.14-.02.17-.13.15-.3.28-.43.44-.16.19-.34.28-.6.26-.24-.02-.52-.1-.72.16-.02.02-.17-.01-.22-.07-.33-.32-.46.21-.72.16.02.08.02.21.07.23.23.09.46.16.7.2.2.03.41,0,.61.01.23.02.39.25.37.48-.02.23-.15.36-.37.39-.14.02-.29,0-.44,0s-.3-.03-.44,0c-.18.05-.34.17-.51.25.14.14.26.26.5.28.38.02.75.25,1.15.16.34-.08.23.25.36.37.18.17-.08.22-.14.3-.2.25-.49.35-.8.39-.46.06-.89-.08-1.27-.31-.23-.14-.53-.27-.62-.59-.09-.31-.21-.62-.28-.84Z" fill="#4f5353" stroke-width="0"/>
  <path d="m22.68,8.61c-.06-.08-.22-.19-.25-.33-.05-.25-.03-.52,0-.78.02-.25-.14-.35-.31-.46-.04-.03-.11,0-.17,0-.27-.02-.54.19-.82,0-.01,0-.08.07-.13.1-.14.1-.32.11-.39.35-.04.12-.03.45-.39.46-.16,0-.21.19-.27-.11-.06-.32-.2-.56.13-.87.28-.26.45-.68.56-1.06.19-.65.67-1.12,1.01-1.68.11-.17.26-.41.55-.35.3.06.45.28.58.55.2.4.17.82.17,1.24,0,.3-.01.59.36.66.28.06.19.37.15.4-.63.48-.21,1-.1,1.51.01.06.03.17.03.18-.21.06-.42.11-.71.19Zm-.43-3.09c0-.09.03-.19,0-.25-.05-.07-.21-.16-.23-.14-.17.15-.33.3-.45.48-.05.07-.01.3.02.31.18.05.38.07.57.06.04,0,.07-.18.09-.29.01-.05,0-.11,0-.17Z" fill="#4f5353" stroke-width="0"/>
  <path d="m43.88,6.43c0,.41,0,.82,0,1.22,0,.22-.02.4-.21.52-.1.06-.27.17-.3.14-.09-.09-.17-.22-.19-.35-.03-.23,0-.47,0-.7,0-.12-.38-.45-.48-.38-.32.23-.67.1-1,.11-.25,0-.29.11-.28.31.01.2.05.42-.01.61-.04.13-.23.3-.35.29-.12,0-.31-.2-.32-.32-.07-.88.14-1.68.57-2.47.35-.64.83-1.13,1.32-1.64.12-.12.21-.12.37-.04.44.24.87.85.88,1.37.01.44,0,.87,0,1.31Zm-.7-.89c0-.17.02-.35,0-.52-.04-.21-.44-.37-.63-.27-.13.07.01.39-.29.33-.03,0-.09.11-.13.18-.25.42-.24.47.17.69.07.04.14.09.21.12.49.19.66.08.66-.45,0-.03,0-.06,0-.09Z" fill="#4f5353" stroke-width="0"/>
  <path d="m50.27,4.46c1.03-.04,1.93.76,2.05,1.83.07.63-.27,1.17-.8,1.47-.26.15-.4.42-.66.51-.24.08-.46.13-.66.31-.27.23-.63.03-.68-.31,0-.03,0-.06,0-.09.06-.27-.02-1.26,0-1.51.03-.33.13-.65.16-.98.03-.35,0-.7.02-1.05,0-.07.12-.16.21-.18.11-.03.23,0,.35,0Zm1.19,1.62c.08-.35-.46-.75-.74-.92-.21-.13-.3-.05-.31.67,0,.49-.2,1.13-.17,1.23.03.08-.07.59,0,.6.22.02.63-.38.82-.59.24-.29.43-.58.4-.99Z" fill="#4f5353" stroke-width="0"/>
  <path d="m39.27,5.85c0,.06.03.15,0,.19-.52.59-.36,1.3-.39,1.98,0,.1-.09.28-.14.28-.16,0-.32.09-.46-.18-.18-.37-.18-.73-.17-1.1,0-.21-.07-.28-.28-.27-.29.01-.59-.03-.87.02-.18.03-.23-.36-.46-.08-.17.2-.21.4-.09.6.08.14.24.26.08.4-.18.16-.4.28-.61.41-.01,0-.11-.08-.11-.1.19-.47-.51-.91-.02-1.41.11-.12,0-.44.02-.67.05-.53.12-1.05.2-1.57,0-.05.14-.12.21-.12.48-.03.65.24.49.75-.04.11-.14.26-.1.32.08.12.22.25.36.28.24.05.51-.06.71.2.02.02.22-.07.32-.13.3-.2.4-.54.54-.85.05-.11.04-.25.09-.35.04-.08.17-.21.19-.2.11.05.19.15.28.24.02.02.03.06.03.08.04.43.08.86.12,1.29.02,0,.05,0,.07,0Z" fill="#4f5353" stroke-width="0"/>
  <path d="m74.64,8.67c-.51,0-.98-.28-1.14-.59-.17-.33-.47-.69-.45-1.02.04-.63,0-1.34.61-1.79.04-.03.15-.04.18,0,.06.07.11.16.1.24-.02.16-.03.35-.12.47-.4.5-.01.96.08,1.42.05.25.75.35.99.15.3-.25.62-.54.7-.93.13-.62.43-1.2.37-1.86-.01-.14-.02-.3.2-.28.13.01.26-.06.34.16.11.29.18.49.02.83-.23.48-.27,1.05-.38,1.59-.11.54-.38.97-.85,1.27-.24.16-.51.28-.64.35Z" fill="#4f5353" stroke-width="0"/>
  <path d="m32.59,3.87c.39.13.89.27,1.36.47.09.04.16.35.1.48-.09.23-.26.46-.57.38-.3-.07-.59-.17-.89-.26-.15-.04-.35-.17-.45-.12-.31.17-.61.37-.85.62-.23.24-.13.92.11,1.19.07.08.16.16.23.24q.89.91,2.16.33c.09-.04.19-.08.28-.12.26-.12.6,0,.65.28.04.21.12.46-.31.53-.45.08-.91.33-1.28.61-.34.26-.6.39-.93.04-1.17-.1-1.44-.99-1.67-1.91-.07-.3.05-.64-.22-.91-.07-.07-.04-.3.01-.42.31-.73,1.34-1.4,2.26-1.43Z" fill="#4f5353" stroke-width="0"/>
  <path d="m0,7.55c.15-.76.26-1.52.46-2.27.12-.45.16-.92.3-1.36.05-.15.16-.28.24-.42.21.16.43.31.63.48.02.01-.04.16-.09.21-.33.31-.35.73-.43,1.13-.09.45-.15.91-.28,1.36-.09.32-.06.68-.05,1.02,0,.05.16.16.23.15.33-.04.65-.12.98-.16.12-.01.33-.09.35.12,0,.15-.04.38-.15.45-.39.25-.79.48-1.21.64-.43.16-.83-.19-.9-.73-.03-.2,0-.41,0-.61-.02,0-.03,0-.05,0Z" fill="#4f5353" stroke-width="0"/>
  <path d="m79.73,7.18s.26-.06.48-.11c.18-.05.65.12.68.26.05.26-.07.47-.3.54-.44.14-.94.16-1.33.38-.34.19-.54.1-.83-.01-.34-.14-.47-.47-.49-.71-.02-.43-.15-.89.13-1.34.17-.29.13-.7.2-1.05.05-.24.1-.48.18-.71.03-.08.13-.22.17-.21.1.02.21.09.27.18.06.08.08.21.08.31.02.56-.15,1.09-.29,1.63-.16.61,0,.84.63.85.03,0,.06,0,.09,0h.35Z" fill="#4f5353" stroke-width="0"/>
  <path d="m66.49,5.93c.05.68-.27,1.32-.2,2.02.02.17-.29.37-.47.54-.02.02-.19-.05-.2-.09-.05-.3.03-.59-.16-.9-.1-.17.1-.52.17-.77.15-.53.34-1.04.33-1.6,0-.04.06-.12.09-.12.08,0,.18.01.23.06.09.1.17.22.2.35.03.17,0,.35,0,.52Z" fill="#4f5353" stroke-width="0"/>
  <path d="m71.47,6.51c0,.17-.02.34,0,.5.08.53-.16.84-.61,1.11-.54.32-1.05.23-1.53-.03-.33-.18-.62-.45-.91-.7-.09-.08-.16-.2-.19-.32-.08-.34.25-.69,0-1.04.18-.26.33-.55.55-.77.31-.32.57-.73,1.05-.86.15-.04.31-.14.45-.12.56.1,1.18.86,1.2,1.43.01.27,0,.54,0,.8Zm-.61-.33c0-.24.03-.48-.01-.7-.03-.14-.17-.36-.27-.37-.38-.04-.75-.13-1.11.21-.24.23-.05.45-.19.68-.38.64-.11,1.16.62,1.44.08.03.19.07.27.05.46-.11.69-.42.7-.9,0-.13,0-.27,0-.4Z" fill="#4f5353" stroke-width="0"/>
  <path d="m54.49,5.41c.09.31-.1.7.15,1.1.17.28-.1.73.2,1.05.01.02.01.06,0,.08-.1.21.21.55-.18.66-.28.08-.63-.25-.7-.6-.06-.27-.14-.53-.17-.8-.03-.29,0-.58,0-.87,0-.5.02-.99,0-1.49-.01-.27.13-.27.32-.26.19.01.44-.07.39.28-.01.09,0,.17,0,.26v.59Z" fill="#4f5353" stroke-width="0"/>
</svg>