<?xml version="1.0" encoding="UTF-8"?>
<svg id="Layer_1" data-name="Layer 1" xmlns="http://www.w3.org/2000/svg" viewBox="0 0 91.72 12.69">
  <path d="m5.61,6.83c0,.4-.04.76.01,1.1.05.32-.13.37-.34.46-.27.11-.54.01-.53-.25.01-.3-.05-.59.09-.92.14-.35.07-.79.07-1.19,0-.12.08-.32-.15-.33-.13,0-.31.02-.38.11-.2.23-.36.49-.51.74-.19.33-.32.7-.55.99-.34.44-.64.34-.86-.16-.34-.77-.38-1.64-.87-2.35-.05-.08-.13-.21-.18-.2-.1.02-.2.1-.27.18-.05.06-.05.15-.08.23-.18.64-.4,1.27-.36,1.95.01.23-.1.48-.19.7-.02.06-.21.09-.31.07-.07-.02-.18-.13-.18-.2-.04-.73.07-1.44.32-2.14.16-.46.25-.95.38-1.42.06-.21.13-.42.25-.59.18-.28.53-.29.71-.01.22.34.51.68.54,1.08.03.45.29.76.46,1.13.26.54.43.55.78.03.29-.44.55-.9.94-1.27.13-.12.24-.41.47-.23.22.17.53.18.61.6.13.65.14,1.29.15,1.89Z" fill="#4f5353" stroke-width="0"/>
  <path d="m11.07,7.72s0,.06,0,.09c-.03.19,0,.51-.09.55-.26.11-.35-.22-.53-.34-.02-.02-.06-.04-.06-.06-.05-.31-.18-.7-.44-.75-.5-.1-1.03-.05-1.55-.04-.04,0-.09.11-.12.18-.06.15-.11.31-.18.45-.07.14-.15.3-.27.4-.07.06-.32-.42-.25-.58.2-.43.29-.87.36-1.34.03-.23.23-.42.33-.64.24-.51.46-1.03.7-1.54.06-.12.1-.26.19-.36.33-.39.44-.37.69.04.3.49.4,1.06.53,1.61.05.22.32.8.41,1.05.15.41.25.83.37,1.25-.03,0-.05.01-.08.02Zm-1.55-1.44c.09,0,.17,0,.26,0,.25-.01.29-.08.18-.31-.03-.07-.07-.14-.12-.21-.17-.23-.16-.67-.51-.68-.46-.01-.27.54-.51.76-.1.09.11.42.27.44.14.02.29,0,.43,0Z" fill="#4f5353" stroke-width="0"/>
  <path d="m14.08,6.68c.06-.42.16-1.97.17-2.25.02-.33.13-.47.45-.64.37-.2.74-.24.98-.05.19.16.56.14.61.54.06.45.36.87-.02,1.31-.05.06-.02.2-.09.23-.47.21-.22.36.21.72.47.4,1.04.59,1.53.92.19.13.48.2.29.51-.13.22-.65.35-.79.17-.49-.63-1.37-.67-1.85-1.28-.3-.38-.49-.21-.78-.31-.22-.07-.17.56-.17.69-.01.18,0,.36,0,.55,0,.23-.14.21-.3.22-.2.01-.26-.07-.26-.26.01-.33,0-.67,0-1.07Zm.73-1.69c0,.27-.02.36,0,.45.03.13.05.33.13.36.2.08.43.02.53-.2.11-.25.19-.52.24-.8.02-.08-.08-.25-.13-.26-.23-.02-.51-.06-.69.04-.11.06-.07.37-.08.4Z" fill="#4f5353" stroke-width="0"/>
  <path d="m20.17,5.07c.16-.37.48-.83.89-.86.23-.02,1.2-.57,2.3.11.14.08.32.24.32.37.01.3-.26.15-.41.17-.27.02-1.06-.22-1.34-.22-.45.01-1.2.58-1.22,1.04-.03.76.33,2.02.75,2.61.15.21,1.26.73,1.99-1.16.13-.35-.11-.51-.46-.4-.13.04-.25.13-.39.17-.07.02-.2-.02-.23-.08-.18-.31-.38-1.02-.04-1.05.24-.02.94.18,1.16.24.27.07.54.19.76.36.33.26-.22,1.43-.31,1.72-.24.73-1.25,1.16-2,1.21-.67.04-1.59-1.12-1.78-1.67-.06-.16-.35-1.73,0-2.55Z" fill="#4f5353" stroke-width="0"/>
  <path d="m29.52,6.02c.14.89-.37,1.49-1.18,1.94-.29.16-.5.16-.78.01-.55-.29-1.02-.77-1.14-1.34-.03-.16.13-.35.12-.52-.04-.81.32-1.67.93-1.99.21-.11.52-.11.75-.04.3.1.56.32.85.47.58.32.45.87.47,1.47Zm-.56-.13c.2-.55-.21-.84-.55-1.06-.27-.17-.61-.06-.95.07-.38.14-.16.37-.22.54-.03.1,0,.25-.06.32-.17.21-.17.4,0,.6.16.19.27.43.44.6.14.14.72.09.88-.06.28-.28.68-.51.46-1.01Z" fill="#4f5353" stroke-width="0"/>
  <path d="m33.2,4.46c.5-.1,1.11.15,1.69-.13.09-.04.28.09.41.18.04.03.06.19.03.22-.2.18-.33.46-.69.44-.29,0-.59.1-.89.17-.06.01-.15.11-.14.16.08.5-.2,1.03.16,1.51.07.09.02.28,0,.43-.02.26,0,.52.18.71.24.26.1.49,0,.73-.02.04-.13.08-.14.07-.13-.14-.32-.28-.37-.46-.1-.37-.16-.76-.18-1.15-.03-.42-.25-.8-.21-1.23.01-.19-.09-.48-.24-.58-.22-.14-.52-.14-.79-.2-.16-.03-.39,0-.48-.08-.12-.12-.16-.34-.2-.52-.04-.15,0-.28.21-.28.52,0,1.05,0,1.66,0Z" fill="#4f5353" stroke-width="0"/>
</svg>