<?xml version="1.0" encoding="UTF-8"?>
<svg id="Layer_1" data-name="Layer 1" xmlns="http://www.w3.org/2000/svg" viewBox="0 0 91.72 12.69">
  <path d="m5.78,5.33c-.12,1.11-.24,2.22-.18,3.34,0,.07-.41.39-.46.35-.15-.1-.4-.23-.4-.33.03-.54-.16-1.09.1-1.61.07-.14.03-.33.06-.5.05-.36-.14-.75.13-1.09.02-.02-.06-.12-.1-.18-.09-.15-.16-.07-.25.01-.76.74-1.2,1.64-1.34,2.68-.03.18-.07.31-.19.45-.17.19-.36.34-.6.24-.21-.1-.31-.3-.28-.57.04-.38-.04-.77.02-1.13.07-.42-.18-.76-.2-1.15,0-.15-.14-.29-.22-.43-.16.15-.43.29-.45.45-.05.57-.27,1.05-.52,1.54-.11.21-.03.51-.02.78.01.33-.17.58-.38.8-.07.08-.27.09-.39.07-.05,0-.1-.18-.1-.28-.02-.45.05-.86.24-1.3.29-.67.42-1.4.63-2.1.16-.52.34-1.03.53-1.53.09-.25.3-.29.51-.13.42.32.65.75.72,1.28.04.33.11.65.17.98.03.15.22.18.33.05.23-.28.52-.54.67-.86.19-.42.56-.64.82-.97.11-.14.25-.25.44-.2.21.06.42.1.62.18.05.02.09.14.09.22,0,.32,0,.64,0,.96Z" fill="#4f5353" stroke-width="0"/>
  <path d="m30.21,6.01c-.02-.53.18-1.09-.13-1.6-.04-.07,0-.25.08-.3.08-.06.25-.06.33-.01.17.1.27.24.3.48.06.6.14.58.74.44.55-.12.97-.47,1.49-.63.15-.05.36-.16.46-.1.27.14.5.35.73.55.01.01-.03.13-.08.18-.17.2-.36.3-.66.33-.61.05-.77.35-.5.88.32.63.49,1.34,1.1,1.83.38.3.24.78-.23.94-.07.02-.21,0-.23-.03-.32-.61-.93-1.02-1.1-1.73-.08-.31-.26-.6-.31-.92-.05-.28-.19-.3-.4-.28-.56.04-1.06.58-.83,1.04.22.43-.05.91.27,1.29.07.08-.38.59-.52.59-.04,0-.11-.06-.13-.11-.07-.15-.16-.3-.17-.45-.08-.79-.15-1.58-.22-2.37Z" fill="#4f5353" stroke-width="0"/>
  <path d="m68.98,5.98c.03-.28.02-.57.09-.84.15-.55.47-.9,1.09-1.06.27-.07.51-.19.76-.27.24-.07.5-.1.74-.09.22,0,.46.56.4.86-.12.68-.28,1.33-.78,1.87-.3.32-.22.43.07.77.36.41.76.77,1.3.86.29.05.53.11.53.41,0,.23-.47.53-.72.47-.26-.07-.52-.18-.73-.33-.39-.28-.78-.58-1.09-.93-.25-.28-.51-.32-.84-.31-.42.01-.42,0-.45.48,0,.09.03.19,0,.26-.07.12-.17.21-.27.31-.08-.11-.25-.23-.24-.33.04-.44-.15-.9.14-1.34.12-.18.02-.51.02-.77,0,0-.02,0-.03,0Zm.56-.36c-.03.29-.02.57.26.69.41.18,1.23-.23,1.3-.69.04-.3.07-.55.32-.75.04-.03.02-.21-.03-.29-.15-.22-.36-.26-.59-.13-.26.14-.51.35-.79.42-.45.11-.51.39-.46.74Z" fill="#4f5353" stroke-width="0"/>
  <path d="m24.64,6.85c.1-.37-.16-.85.15-1.27.04-.05-.13-.23-.15-.35-.13-1.02.82-1.62,1.85-1.47.17.03.32.21.49.3.71.38.84.81.46,1.48-.03.05-.07.09-.1.13-.21.31-.18.43.16.69.35.28.7.56,1.05.85.04.03.07.13.05.18-.04.13-.1.25-.18.36-.17.24-.44.27-.65.06-.3-.28-.58-.57-.87-.86-.36-.38-.87-.43-1.34-.58-.05-.02-.2.11-.21.17-.02.26-.02.52,0,.78.01.12.18.29.14.35-.1.17-.26.31-.42.43-.15.11-.42-.04-.42-.23,0-.32,0-.64,0-1.03Zm1.5-2.24c-.09,0-.17,0-.26,0-.3-.03-.48.1-.54.4-.07.4.23.28.43.31.13.02.24.15.36.16.59.07.63.03.61-.56q-.01-.31-.61-.31Z" fill="#4f5353" stroke-width="0"/>
  <path d="m39.68,5.25c.12.9.1,1.83.44,2.7.07.18.06.38.08.58,0,.11-.36.49-.47.45-.15-.05-.33-.15-.39-.28-.43-.94-.45-.96-1.33-.94-.48.01-.52.05-.6.6-.04.23-.52.53-.75.45-.06-.02-.12-.12-.12-.18,0-.17.03-.33.07-.49.22-.95.75-1.74,1.3-2.52.19-.27.42-.52.61-.8.07-.11.14-.26.12-.38-.07-.39.17-.37.41-.35.55.06.64.16.65.73,0,.15,0,.29,0,.44Zm-.7,1.2c0-.15.01-.29,0-.43,0-.06-.09-.18-.13-.17-.16.03-.37.05-.45.16-.14.18-.22.42-.25.65,0,.06.26.17.4.24.22.12.4.04.43-.18.01-.09,0-.17,0-.26Z" fill="#4f5353" stroke-width="0"/>
  <path d="m11.58,8.58c-.16.17-.31.41-.52.5-.2.08-.34-.13-.4-.34-.05-.18-.16-.36-.16-.54,0-.2-.08-.32-.21-.44-.2-.18-.29.05-.43.1-.13.05-.29.02-.43,0-.47-.04-.91-.01-1.22.44-.14.21-.31.07-.41-.07-.17-.22-.14-.55.04-.77.79-.94,1.2-1.65,1.6-2.75.07-.2.18-.35.42-.35.29,0,.52.14.63.4.26.6.58,1.2.53,1.88-.05.64.32,1.16.44,1.75.01.05.06.09.14.19Zm-1.27-2.18c0-.12.05-.27-.01-.34-.09-.12-.24-.22-.39-.28-.08-.03-.29.06-.29.08.02.36-.21.62-.36.91-.02.05.04.2.08.21.28.05.54-.05.81-.15.27-.11.1-.29.16-.43Z" fill="#4f5353" stroke-width="0"/>
  <path d="m60.4,7.17c0-.06,0-.12,0-.17,0-.6-.03-.62.39-1.13.48-.57.79-1.25,1.19-1.86.3-.47.61-.45.87.05.07.14.18.31.17.45-.05.41.15.77.18,1.15.03.39.16.74.32,1.09.17.39-.13.84.17,1.24.09.12-.49.52-.69.45-.06-.02-.11-.11-.13-.17-.02-.05,0-.12,0-.17q-.21-.7-.93-.7c-.15,0-.29,0-.44,0-.3,0-.68-.1-.58.45.01.06-.14.2-.24.23-.07.02-.25-.06-.25-.11-.03-.26-.01-.52-.01-.78Zm1.84-.85s.22-.05.34-.17c.2-.19.11-.77-.11-1-.15-.16-.47-.05-.71.27-.1.13-.17.27-.25.42-.08.15.04.44.2.48.11.02.23,0,.53,0Z" fill="#4f5353" stroke-width="0"/>
  <path d="m55.98,6.18c.11-.42-.19-.97.16-1.43-.25-.19-.16-.47-.16-.71,0-.29.24-.5.5-.43.8.22,1.63.41,2.14,1.16.2.29.57.59.18,1.02-.07.08-.03.28-.02.42.02.3-.14.54-.31.74-.26.32-.56.6-.86.87-.31.28-.91.32-1.28.16-.24-.11-.36-.24-.36-.51.01-.41,0-.82,0-1.3Zm.7-.45c0,.32-.01.64,0,.95.02.3.32.5.6.42.41-.13.64-.43.9-1.25.11-.36-.12-.61-.35-.84-.06-.06-.13-.12-.18-.18-.24-.33-.59-.12-.88-.18-.03.19-.07.38-.09.56-.02.17,0,.35,0,.52Z" fill="#4f5353" stroke-width="0"/>
  <path d="m48.32,3.93c.55,0,1.1-.02,1.65.01.2.01.44.12.56.22.05.04-.17.18-.26.28-.23.23-.63.21-1,.19-.37-.02-.57.04-.49.26.08.24.17.48.25.72.07.22.04.42.21.66.33.45-.3.92-.21,1.41-.73.38-1.17.95-2.15,1.17-.57.13-1.2.02-1.71-.22-.4-.19-.18-.44-.18-.66,0-.15.67-.39.95-.36.11,0,.3.11.29.15-.1.32.31.3.62.26.49-.07.89-.16,1.23-.45.27-.24.04-.49.35-.71.24-.17.18-.41-.12-.63-.14-.1-.04-.32-.02-.48.03-.25-.07-.48-.24-.72-.27-.38-.23-.39-.91-.4-.17,0-.34,0-.51,0-.4,0-.59-.13-.63-.34-.04-.19.21-.36.57-.36.59-.01,1.18,0,1.78,0Z" fill="#4f5353" stroke-width="0"/>
  <path d="m15.61,4.71c-.37.02-.67-.07-.9.18-.02.02-.12,0-.16-.03-.18-.15-.04-.95.19-1,.31-.07.66-.2.94-.11.36.11.77.06,1.08.34.16.15.06.23.03.38-.16.88-.58,1.6-1.2,2.22-.11.11-.17.28-.25.42-.1.16-.21.32-.32.48.19.03.37.08.56.1.5.06.98.25,1.5.18.3-.04.24.21.2.35-.03.12-.16.32-.24.32-.63,0-1.24.46-1.89.08-.07-.04-.16-.06-.24-.05-.53.09-.68-.19-.87-.66-.16-.4.25-.47.17-.74.31-.01.35-.3.51-.46.15-.14.26-.31.41-.44.32-.29.48-.68.67-1.04.08-.16.15-.32.22-.48-.17-.02-.34-.04-.41-.05Z" fill="#4f5353" stroke-width="0"/>
  <path d="m86.88,7.1c.05.27-.06.47-.27.66-.22.19-.39.46-.63.6-.26.15-.52.44-.9.14-.21-.17-.55.04-.79-.22-.13-.15-.44-.15-.55-.3-.11-.16.05-.43-.13-.65-.05-.07.16-.35.27-.52.02-.04.14-.06.18-.03.11.09.24.19.31.31.31.5.78.5,1.29.5.24,0,.44-.09.49-.27.05-.2.11-.44-.08-.65-.27-.29-.52-.6-.74-.92-.28-.4-.58-.81-.56-1.35.01-.3.14-.43.43-.52.4-.13.78-.27,1.17,0,.18.13.22.25.04.38-.18.13-.36.26-.57.32-.26.08-.24.18-.11.36.27.38.51.79.81,1.15.25.3.36.62.33,1.02Z" fill="#4f5353" stroke-width="0"/>
  <path d="m77.29,6.44c.14.89-.37,1.49-1.18,1.94-.29.16-.5.16-.78.01-.55-.29-1.02-.77-1.14-1.34-.03-.16.13-.35.12-.52-.04-.81.32-1.67.93-1.99.21-.11.52-.11.75-.04.3.1.56.32.85.47.58.32.45.87.47,1.47Zm-.56-.13c.2-.55-.21-.84-.55-1.06-.27-.17-.61-.06-.95.07-.38.14-.16.37-.22.54-.03.1,0,.25-.06.32-.17.21-.17.4,0,.6.16.19.27.43.44.6.14.14.72.09.88-.06.28-.28.68-.51.46-1.01Z" fill="#4f5353" stroke-width="0"/>
  <path d="m21.29,5.81c.13-.42-.16-.87.17-1.26.08-.09.01-.34.22-.26.13.05.3.21.32.34.04.4.12.85-.01,1.21-.15.4-.16.77-.14,1.16.02.49-.16.87-.51,1.19-.13.12-.25.25-.37.37-.41.39-.63.37-.97-.08-.34-.44-.48-.99-.59-1.5-.11-.54-.33-1.09-.2-1.67.05-.21.1-.42.2-.61.03-.06.21-.09.31-.07.08.02.15.12.19.2.03.07.04.19,0,.26-.39.8-.08,1.49.29,2.18.04.07.06.16.06.23,0,.17.02.29.23.27.13-.01.21-.03.32-.17.43-.54.61-1.13.48-1.79Z" fill="#4f5353" stroke-width="0"/>
  <path d="m78.85,5.73c0-.26-.01-.53.01-.78,0-.06.15-.14.24-.14.09,0,.25.06.26.12.03.2.03.41,0,.61-.03.36.17,1.26.36,1.46.14.15.75.11.95-.07.41-.38.5-.9.62-1.4.05-.19,0-.41.01-.61.02-.19-.14-.49.29-.46.44.03.64.16.57.53-.09.47-.29.93-.41,1.4-.15.59-.5,1.03-.92,1.46-.26.28-.53.29-.85.3-.33,0-.45-.26-.6-.44-.4-.5-.54-1.11-.54-1.95Z" fill="#4f5353" stroke-width="0"/>
  <path d="m50.57,8.41s.02-.19.07-.33c.03-.08.11-.16.19-.19.09-.03.44.43.47.58.04.23-.07.32-.29.33-.04,0-.08.1-.13.12-.15.07-.29.09-.31-.14,0-.09,0-.18,0-.37Z" fill="#4f5353" stroke-width="0"/>
</svg>