<?xml version="1.0" encoding="UTF-8"?>
<svg id="Layer_1" data-name="Layer 1" xmlns="http://www.w3.org/2000/svg" viewBox="0 0 91.72 12.69">
  <path d="m.05,7.61c.04-.89.08-1.78.14-2.66,0-.1.08-.22.16-.3.29-.31.61-.6.9-.91.21-.22.54-.19.66-.09.31.23.62.46.86.79.17.24.12.44.15.67.05.39-.06.75-.28,1.07-.14.21-.3.42-.45.63.22.14.32.39.63.48.23.06.41.35.59.56.12.14.42.26.16.5-.25.23-.54.22-.75,0-.33-.35-.69-.64-1.09-.91-.57-.37-.87-.24-1.01.46-.03.16-.13.34-.25.43-.19.15-.46-.02-.47-.27,0-.15,0-.3,0-.46.02,0,.03,0,.05,0Zm.68-1.94c.08.16-.18.42.25.53.49.13.81.14,1-.28.12-.25.15-.54.21-.81.05-.23-.04-.46-.24-.52-.2-.06-.5-.06-.65.05-.33.23-.59.56-.56,1.03Z" fill="#4f5353" stroke-width="0"/>
  <path d="m10.23,5.85c0-.41,0-.69,0-.96.01-.4.31-.69.73-.72.23-.02.44-.01.67-.16.24-.16.57,0,.82.17.14.09.32.24.32.37.01.3-.26.15-.41.17-.27.02-.55,0-.82,0-.45.01-.74.32-.76.78-.03.76.33,2.02.75,2.61.15.21.63.4.79.24.36-.36.97-.48,1.1-1.07.02-.11.08-.21.09-.33.05-.37-.11-.51-.46-.4-.13.04-.25.13-.39.17-.07.02-.2-.02-.23-.08-.18-.31.06-.79.4-.82.24-.02.5-.05.73,0,.27.07.54.19.76.36.33.26-.11.44-.14.68-.04.3-.21.58-.3.87-.24.73-1.12,1.33-1.87,1.38-.67.04-1.04-.51-1.24-1.07-.06-.16-.1-.32-.17-.48-.26-.59-.52-1.18-.38-1.71Z" fill="#4f5353" stroke-width="0"/>
  <path d="m26.84,6.69c.05-.53.1-1.27.19-2,.01-.12.19-.34.26-.33.46.09.87-.3,1.29-.18.34.1.67.15,1.02.17.06,0,.14.15.16.25.03.15.01.32-.21.29-.45-.07-.86.15-1.29.17-.3.01-.47.19-.56.38-.08.15.01.4.07.6.02.07.18.12.28.13.3.02.61,0,.91,0,.32.02.62.25.63.44,0,.23-.23.44-.6.46-.16.01-.34-.06-.5-.09-.17-.03-.34-.09-.51-.08-.29.02-.39.21-.4.49,0,.31.22.18.37.24.24.1.42.3.69,0,.08-.09.35-.03.53-.01.27.02.42.21.43.46.01.26-.15.41-.35.44-.26.04-.5.07-.75.17-.23.1-.59.11-.8,0-.31-.17-.55-.47-.77-.75-.09-.12-.06-.34-.06-.51,0-.18,0-.36,0-.75Z" fill="#4f5353" stroke-width="0"/>
  <path d="m35.27,4.33c.44.13.9-.15,1.32.17.13.1.32.07.3.33-.02.25-.15.39-.37.43-.21.04-.42,0-.63,0-.53.01-.75.27-.84.8-.09.55-.22,1.09-.17,1.65.01.14-.01.33.06.42.15.18.15.28,0,.45-.2.23-.45.11-.67.13-.03,0-.12-.1-.11-.11.24-.36-.29-.61-.07-1.07.25-.52.18-1.19.25-1.8.03-.23-.05-.32-.3-.31-.41.01-.82.07-1.2-.17-.09-.06-.3-.04-.31-.09-.04-.17-.03-.36,0-.54,0-.04.14-.09.22-.1.85-.07,1.71-.14,2.55-.21Z" fill="#4f5353" stroke-width="0"/>
  <path d="m18.79,6.7c.19.86-.38,1.35-.94,1.78-.22.17-.77.16-1,0-.43-.32-.82-.76-.78-1.39.01-.21,0-.43,0-.64,0-.08.03-.2.08-.23.39-.25.76-.5.84-1.01,0-.04.14-.09.22-.1.21-.01.43,0,.64,0,.3-.01.49.06.61.39.15.4.46.75.33,1.22Zm-1.44.95s.22,0,.35-.1c.51-.33.65-.93.37-1.49-.11-.23-.34-.31-.52-.17-.41.34-.62.82-.75,1.31-.11.4-.03.45.54.45Z" fill="#4f5353" stroke-width="0"/>
  <path d="m22.07,7.74c-.03-.92.23-1.79.39-2.68.04-.22.19-.2.32-.1.09.07.21.18.21.27,0,.32-.07.64-.09.96-.03.44-.08.89-.06,1.33,0,.08.1.37.43.16.33-.2,1.15.21,1.19.46,0,.05,0,.12-.04.17-.22.32-.62.25-.92.41-.09.05-.24.01-.36,0-.33,0-.77.1-.96-.06-.18-.16-.09-.61-.12-.94Z" fill="#4f5353" stroke-width="0"/>
  <path d="m6.16,7.1c.08-.7.16-1.4.25-2.1,0-.03.09-.07.14-.08.05,0,.14.01.16.05.09.24.21.48.22.73.03.64.02,1.28,0,1.92,0,.23-.34.52-.6.55-.04,0-.12-.09-.12-.14-.01-.3,0-.61,0-.91-.02,0-.03,0-.05,0Z" fill="#4f5353" stroke-width="0"/>
</svg>