<?xml version="1.0" encoding="utf-8"?>
<!-- Generator: Adobe Illustrator 27.9.0, SVG Export Plug-In . SVG Version: 6.00 Build 0)  -->
<svg version="1.1" id="Layer_1" xmlns="http://www.w3.org/2000/svg" xmlns:xlink="http://www.w3.org/1999/xlink" x="0px" y="0px"
	 viewBox="0 0 100 100" style="enable-background:new 0 0 100 100;" xml:space="preserve">
<style type="text/css">
	.st0{fill:none;stroke:#85AFBF;stroke-width:0.28;stroke-linecap:round;stroke-linejoin:round;}
</style>
<g>
	<line class="st0" x1="27.2" y1="94.9" x2="72.8" y2="95"/>
	<line class="st0" x1="27.2" y1="5.1" x2="72.8" y2="5.2"/>
	<line class="st0" x1="69.1" y1="10.5" x2="27.2" y2="10.4"/>
	<line class="st0" x1="27.2" y1="15.7" x2="66.1" y2="15.8"/>
	<line class="st0" x1="27.2" y1="21" x2="63.6" y2="21.1"/>
	<line class="st0" x1="27.2" y1="26.2" x2="61.5" y2="26.3"/>
	<line class="st0" x1="27.2" y1="31.5" x2="59.9" y2="31.6"/>
	<line class="st0" x1="27.2" y1="36.8" x2="58.6" y2="36.9"/>
	<line class="st0" x1="27.2" y1="42.1" x2="57.8" y2="42.2"/>
	<line class="st0" x1="27.2" y1="47.4" x2="57.3" y2="47.4"/>
	<line class="st0" x1="27.2" y1="52.6" x2="57.3" y2="52.7"/>
	<line class="st0" x1="57.6" y1="58" x2="27.2" y2="57.9"/>
	<line class="st0" x1="27.2" y1="63.2" x2="58.4" y2="63.3"/>
	<line class="st0" x1="59.6" y1="68.6" x2="27.2" y2="68.5"/>
	<line class="st0" x1="27.2" y1="73.8" x2="61.3" y2="73.8"/>
	<line class="st0" x1="63.5" y1="79.1" x2="27.2" y2="79"/>
	<line class="st0" x1="27.2" y1="84.3" x2="66.1" y2="84.4"/>
	<line class="st0" x1="69.2" y1="89.7" x2="27.2" y2="89.6"/>
</g>
</svg>
