<?xml version="1.0" encoding="UTF-8"?>
<svg xmlns="http://www.w3.org/2000/svg" viewBox="0 0 100 8.85">
  <path fill="#EDE9D9" d="m12.86,5c-.6,2.08-2.32,2.6-4.04,2.75-2.17.19-4.38.07-6.57,0-.52-.02-1.02-.37-1.52-.57C.49,4.96.26,2.84,0,.47c2.34.03,4.6-.03,6.85.12,1.09.07,2.16.51,3.22.83,1.77.54,2.06,2.24,2.79,3.57Zm-1.17.38c-.29-1.68-1.23-2.52-2.6-2.91-1.13-.32-2.27-.68-3.43-.79-1.38-.13-2.78,0-4.42,0,.21,1.82.38,3.29.56,4.84,3.5-.26,6.88.96,9.89-1.14Z" stroke-width="0"/>
  <path fill="#EDE9D9" d="m37.69,5.37c-2.25,2.4-4.99,2.94-6.94,1.4-1.21-.96-1.68-4.37-.69-5.88.17.37.36.65.43.94.07.29-.02.61.02.91.37,2.84,1.84,3.68,4.49,2.56.23-.1.48-.16.7-.23.26-.48.51-.93.72-1.31q-.34-2.51.63-3.08c.9,1.06,1.08,2.34.64,4.69Z" stroke-width="0"/>
  <path fill="#EDE9D9" d="m65.4,6.81c-.02.48.03.66,0,.92-3.36.09-6.58.5-10.14.19-.18-2.07,0-5-.19-7.24.75-.09,1.43-.24,2.11-.23,2.03.01,4.06.06,6.08.16.49.02.8-.07,1.5.15,0,.47-.02.79-.09,1-2.62-.19-5.62.26-8.24.07,0,.54-.09,1.11-.09,1.7h8.19c-.27.76.04.7-.1,1.11-1.42,0-6.98.09-8.17.24-.14.66.33,1.73.33,1.73,0,0,6.16.29,8.82.21Z" stroke-width="0"/>
  <path fill="#EDE9D9" d="m81.51,8.01c-.06-.65-.11-1.12-.14-1.49,3.22-2.27,6.29-4.44,9.23-6.52,3.09,2.53,6.16,5.05,9.4,7.7-.45.51-.38.65-.82,1.15-.95-.77-1.83-1.37-2.57-2.11-1.61-1.62-4.01-1.19-6.01-1.01-.51.05-3.2-.24-3.7-.28-2.4-.15-1.78-.11-3.68,1.28-.16.15-1.14,1.12-1.69,1.27Zm11.98-3.72c.02-.14-2.78-2.11-3.09-2.37-.51.39-3.51,2.37-3.51,2.37,0,0,5.88-.04,6.6,0Z" stroke-width="0"/>
</svg>